# xmcd CD database file
#
# Track frame offsets:
#	150
#	14113
#	40975
#	75051
#	92983
#	108917
#	123506
#	138239
#	152666
#	167650
#	179710
#	195135
#	213139
#	245982
#
# Disc length: 3784 seconds
#
# Revision: 1
# Processed by: cddbd v1.5.1PL0 Copyright (c) Steve Scherf et al.
# Submitted via: CDex 1.51
#
DISCID=b60ec60e
DTITLE=OSCAR PETERSON - I GOT RHYTHM
DYEAR=2003
DGENRE=Jazz
TTITLE0=SWEET GEORGIA BROWN
TTITLE1=TENDERLY
TTITLE2=C JAM BLUES
TTITLE3=SEVEN COME ELEVEN
TTITLE4=THE MAN I LOVE
TTITLE5=IT AIN'T NECESSARILY SO
TTITLE6=STRIKE UP THE BAND
TTITLE7=LOVE WALKED IN
TTITLE8=I GOT RHYTHM
TTITLE9='S WONDERFUL
TTITLE10=SOMEBODY LOVES ME
TTITLE11=OH, LADY BE GOOD
TTITLE12=I ONLY HAVE EYES FOR YOU
TTITLE13=CARNEGIE BLUES
EXTD=YEAR: 2003
EXTT0=
EXTT1=
EXTT2=
EXTT3=
EXTT4=
EXTT5=
EXTT6=
EXTT7=
EXTT8=
EXTT9=
EXTT10=
EXTT11=
EXTT12=
EXTT13=
PLAYORDER=
